<svg width="48" height="48" viewBox="0 0 48 48" fill="none" xmlns="http://www.w3.org/2000/svg">
<path fill-rule="evenodd" clip-rule="evenodd" d="M24.8602 1.77115L24 3L23.1398 1.77115C23.6563 1.40962 24.3437 1.40962 24.8602 1.77115ZM24 4.875C23.6344 5.16021 23.1673 5.5358 22.6277 5.99447C21.2633 7.15427 19.4457 8.83596 17.6319 10.9218C13.9678 15.1355 10.5 20.7901 10.5 27C10.5 30.5804 11.9223 34.0142 14.4541 36.5459C16.9858 39.0777 20.4196 40.5 24 40.5C27.5804 40.5 31.0142 39.0777 33.5459 36.5459C36.0777 34.0142 37.5 30.5804 37.5 27C37.5 20.7901 34.0322 15.1355 30.3681 10.9218C28.5543 8.83596 26.7367 7.15427 25.3723 5.99447C24.8327 5.5358 24.3656 5.16021 24 4.875ZM23.1389 1.77178C23.1394 1.77145 23.1398 1.77115 24 3C24.8602 1.77115 24.8606 1.77145 24.8611 1.77178L24.8623 1.77265L24.8658 1.77512L24.8769 1.78294L24.9151 1.81007C24.9475 1.83323 24.9937 1.86651 25.0529 1.90969C25.1712 1.99603 25.3411 2.122 25.5554 2.28576C25.9838 2.61318 26.5902 3.09235 27.3152 3.70865C28.7633 4.93948 30.6957 6.72654 32.6319 8.95323C36.4678 13.3645 40.5 19.7099 40.5 27C40.5 31.3761 38.7616 35.5729 35.6673 38.6673C32.5729 41.7616 28.3761 43.5 24 43.5C19.6239 43.5 15.4271 41.7616 12.3327 38.6673C9.23839 35.5729 7.5 31.3761 7.5 27C7.5 19.7099 11.5322 13.3645 15.3681 8.95323C17.3043 6.72654 19.2368 4.93948 20.6848 3.70865C21.4098 3.09235 22.0162 2.61318 22.4446 2.28576C22.6589 2.122 22.8288 1.99603 22.9471 1.90969C23.0063 1.86651 23.0525 1.83323 23.0849 1.81007L23.1231 1.78294L23.1342 1.77512L23.1377 1.77265L23.1389 1.77178Z" fill="#00CEEF"/>
<path fill-rule="evenodd" clip-rule="evenodd" d="M33.1232 27.0405C33.9396 27.1811 34.4875 27.9569 34.347 28.7733C33.9788 30.9119 32.956 32.8835 31.4196 34.4159C29.8832 35.9484 27.909 36.9663 25.7694 37.3289C24.9527 37.4674 24.1783 36.9175 24.0398 36.1007C23.9014 35.284 24.4513 34.5096 25.268 34.3711C26.7952 34.1123 28.2043 33.3858 29.301 32.2919C30.3976 31.1981 31.1277 29.7908 31.3905 28.2643C31.531 27.4479 32.3068 26.9 33.1232 27.0405Z" fill="#00CEEF"/>
</svg>
