<svg width="48" height="48" viewBox="0 0 48 48" fill="none" xmlns="http://www.w3.org/2000/svg">
<path fill-rule="evenodd" clip-rule="evenodd" d="M39.75 12.75C38.5074 12.75 37.5 13.7574 37.5 15C37.5 16.2426 38.5074 17.25 39.75 17.25C40.9926 17.25 42 16.2426 42 15C42 13.7574 40.9926 12.75 39.75 12.75ZM34.5 15C34.5 12.1005 36.8505 9.75 39.75 9.75C42.6495 9.75 45 12.1005 45 15C45 17.8995 42.6495 20.25 39.75 20.25C36.8505 20.25 34.5 17.8995 34.5 15Z" fill="#00CEEF"/>
<path fill-rule="evenodd" clip-rule="evenodd" d="M22.5 4.5C21.3065 4.5 20.1619 4.97411 19.318 5.81802C18.4741 6.66193 18 7.80653 18 9V27.5625H16.5L17.4231 28.7448C16.069 29.802 15.0787 31.2555 14.5904 32.9025C14.102 34.5495 14.14 36.3079 14.699 37.9323C15.258 39.5567 16.3101 40.966 17.7086 41.9637C19.1071 42.9614 20.7821 43.4977 22.5 43.4977C24.2179 43.4977 25.8929 42.9614 27.2914 41.9637C28.6899 40.966 29.742 39.5567 30.301 37.9323C30.86 36.3079 30.898 34.5495 30.4096 32.9025C29.9213 31.2555 28.931 29.802 27.5769 28.7448C27.2128 28.4606 27 28.0244 27 27.5625V9C27 7.80653 26.5259 6.66193 25.682 5.81802C24.8381 4.97411 23.6935 4.5 22.5 4.5ZM15 26.8624V9C15 7.01088 15.7902 5.10322 17.1967 3.6967C18.6032 2.29018 20.5109 1.5 22.5 1.5C24.4891 1.5 26.3968 2.29018 27.8033 3.6967C29.2098 5.10322 30 7.01088 30 9V26.8624C31.5514 28.2501 32.6914 30.0447 33.2859 32.0497C33.9518 34.2956 33.9 36.6934 33.1377 38.9085C32.3755 41.1236 30.9407 43.0454 29.0337 44.4059C27.1267 45.7664 24.8426 46.4977 22.5 46.4977C20.1574 46.4977 17.8733 45.7664 15.9663 44.4059C14.0593 43.0454 12.6246 41.1236 11.8623 38.9085C11.1 36.6934 11.0482 34.2956 11.7141 32.0497C12.3086 30.0447 13.4486 28.2501 15 26.8624Z" fill="#00CEEF"/>
<path fill-rule="evenodd" clip-rule="evenodd" d="M22.5 33C21.2574 33 20.25 34.0074 20.25 35.25C20.25 36.4926 21.2574 37.5 22.5 37.5C23.7426 37.5 24.75 36.4926 24.75 35.25C24.75 34.0074 23.7426 33 22.5 33ZM17.25 35.25C17.25 32.3505 19.6005 30 22.5 30C25.3995 30 27.75 32.3505 27.75 35.25C27.75 38.1495 25.3995 40.5 22.5 40.5C19.6005 40.5 17.25 38.1495 17.25 35.25Z" fill="#00CEEF"/>
<path fill-rule="evenodd" clip-rule="evenodd" d="M22.5 15C23.3284 15 24 15.6716 24 16.5V31.5C24 32.3284 23.3284 33 22.5 33C21.6716 33 21 32.3284 21 31.5V16.5C21 15.6716 21.6716 15 22.5 15Z" fill="#00CEEF"/>
</svg>
