<svg width="48" height="48" viewBox="0 0 48 48" fill="none" xmlns="http://www.w3.org/2000/svg">
<path fill-rule="evenodd" clip-rule="evenodd" d="M28.4994 28.5C29.596 28.4992 30.6719 28.799 31.61 29.3668C32.5484 29.9347 33.3132 30.7489 33.8212 31.7209C34.3292 32.693 34.561 33.7857 34.4915 34.8803C34.422 35.9749 34.0538 37.0295 33.4268 37.9295C32.7999 38.8295 31.9383 39.5404 30.9356 39.985C29.933 40.4296 28.8276 40.5908 27.7397 40.4512C26.6518 40.3115 25.623 39.8764 24.7652 39.193C23.9073 38.5096 23.2531 37.6041 22.8738 36.575C22.5873 35.7977 22.9852 34.9353 23.7625 34.6488C24.5398 34.3623 25.4022 34.7602 25.6887 35.5375C25.8784 36.0521 26.2054 36.5048 26.6344 36.8465C27.0633 37.1882 27.5777 37.4058 28.1217 37.4756C28.6656 37.5454 29.2183 37.4648 29.7196 37.2425C30.2209 37.0202 30.6518 36.6647 30.9652 36.2148C31.2787 35.7648 31.4628 35.2375 31.4976 34.6902C31.5323 34.1429 31.4164 33.5965 31.1624 33.1105C30.9084 32.6244 30.526 32.2173 30.0568 31.9334C29.5876 31.6495 29.0496 31.4996 28.5012 31.5L7.5 31.5C6.67157 31.5 6 30.8284 6 30C6 29.1716 6.67157 28.5 7.5 28.5H28.4994Z" fill="#00CEEF"/>
<path fill-rule="evenodd" clip-rule="evenodd" d="M23.7196 10.7575C23.2183 10.5352 22.6656 10.4546 22.1217 10.5244C21.5777 10.5942 21.0633 10.8118 20.6344 11.1535C20.2054 11.4952 19.8784 11.9479 19.6887 12.4625C19.4022 13.2398 18.5398 13.6377 17.7625 13.3512C16.9852 13.0647 16.5873 12.2023 16.8738 11.425C17.2531 10.3959 17.9073 9.4904 18.7652 8.80701C19.623 8.12362 20.6518 7.68846 21.7397 7.54882C22.8276 7.40919 23.933 7.57043 24.9356 8.01501C25.9383 8.45959 26.7999 9.17051 27.4268 10.0705C28.0538 10.9705 28.422 12.0251 28.4915 13.1197C28.561 14.2143 28.3292 15.307 27.8212 16.2791C27.3132 17.2511 26.5484 18.0654 25.61 18.6332C24.672 19.2009 23.5964 19.5007 22.5 19.5H4.5C3.67157 19.5 3 18.8284 3 18C3 17.1716 3.67157 16.5 4.5 16.5H22.5C23.0484 16.5004 23.5876 16.3505 24.0568 16.0666C24.526 15.7827 24.9084 15.3756 25.1624 14.8895C25.4164 14.4035 25.5323 13.8571 25.4975 13.3098C25.4628 12.7625 25.2787 12.2352 24.9652 11.7852C24.6517 11.3353 24.2209 10.9798 23.7196 10.7575Z" fill="#00CEEF"/>
<path fill-rule="evenodd" clip-rule="evenodd" d="M40.2196 16.7575C39.7183 16.5352 39.1656 16.4546 38.6217 16.5244C38.0777 16.5942 37.5633 16.8118 37.1344 17.1535C36.7054 17.4952 36.3784 17.9479 36.1887 18.4625C35.9022 19.2398 35.0398 19.6377 34.2625 19.3512C33.4852 19.0647 33.0873 18.2023 33.3738 17.425C33.7531 16.3959 34.4073 15.4904 35.2652 14.807C36.123 14.1236 37.1518 13.6885 38.2397 13.5488C39.3276 13.4092 40.433 13.5704 41.4356 14.015C42.4383 14.4596 43.2999 15.1705 43.9268 16.0705C44.5538 16.9705 44.922 18.0251 44.9915 19.1197C45.061 20.2143 44.8292 21.307 44.3212 22.2791C43.8132 23.2511 43.0484 24.0654 42.11 24.6332C41.172 25.2009 40.0963 25.5007 38.9998 25.5C38.9995 25.5 39.0001 25.5 38.9998 25.5H6C5.17157 25.5 4.5 24.8284 4.5 24C4.5 23.1716 5.17157 22.5 6 22.5H39C39.5484 22.5004 40.0876 22.3505 40.5568 22.0666C41.026 21.7827 41.4084 21.3756 41.6624 20.8895C41.9164 20.4035 42.0323 19.8571 41.9975 19.3098C41.9628 18.7625 41.7787 18.2352 41.4652 17.7852C41.1517 17.3353 40.7209 16.9798 40.2196 16.7575Z" fill="#00CEEF"/>
</svg>
